<?xml version="1.0"?>
<svg xmlns="http://www.w3.org/2000/svg" id="Layer_1" enable-background="new 0 0 511.34 511.34" height="16px" viewBox="0 0 511.34 511.34" width="16px" class=""><g><path d="m255.667 191.337c-11.947 0-21.667 9.72-21.667 21.666 0 11.947 9.72 21.667 21.667 21.667s21.667-9.72 21.667-21.667c-.001-11.946-9.72-21.666-21.667-21.666z" data-original="#000000" class="active-path" data-old_color="#000000" fill="#FFFFFF"/><path d="m389 0h-266.66c-38.047 0-69 30.953-69 69v373.34c0 38.047 30.953 69 69 69h266.66c38.047 0 69-30.953 69-69v-373.34c0-38.047-30.953-69-69-69zm-47.997 362.003c-11.598 0-21-9.402-21-21 0-35.474-28.86-64.333-64.333-64.333s-64.333 28.859-64.333 64.333c0 11.598-9.402 21-21 21s-21-9.402-21-21c0-39.466 21.614-73.978 53.625-92.324-28.474-41.933 1.603-99.342 52.705-99.342 51.09 0 81.184 57.4 52.707 99.339 32.014 18.346 53.63 52.859 53.63 92.327-.001 11.598-9.402 21-21.001 21z" data-original="#000000" class="active-path" data-old_color="#000000" fill="#FFFFFF"/></g> </svg>
